<svg width="580" height="400" xmlns="http://www.w3.org/2000/svg">
 <!-- Created with SVG Editor - http://github.com/mzalive/SVG Editor/ -->

 <g>
  <title>background</title>
  <rect fill="#fff" id="canvas_background" height="402" width="582" y="-1" x="-1"/>
 </g>
 <g>
  <title>Layer 1</title>
  <g id="svg_8">
   <g transform="matrix(30.864195176112844,0,0,30.864195176112844,0,0) " id="svg_5">
    <path fill="#ffff56" stroke-linejoin="round" stroke-linecap="round" stroke-width="2" stroke="#d4e157" d="m-0.269516,4.752274c-0.31325,-0.2897 -0.14309,-0.81341 0.28061,-0.86364l6.00357,-0.71209c0.17268,-0.02048 0.32267,-0.12892 0.39551,-0.28682l2.53225,-5.48979c0.1787,-0.38743 0.7295,-0.38751 0.9082,-0.00007l2.5322,5.48974c0.0728,0.15791 0.2219,0.26664 0.3945,0.28711l6.0039,0.71192c0.4237,0.05023 0.5934,0.57404 0.2802,0.86374l-4.4381,4.105c-0.1277,0.1181 -0.1845,0.2938 -0.1507,0.4644l1.1779,5.9296c0.0832,0.4185 -0.3622,0.7428 -0.7345,0.5344l-5.2754,-2.9537c-0.1517,-0.0849 -0.336,-0.0845 -0.4878,0.0004l-5.27586,2.9525c-0.37231,0.2084 -0.8185,-0.1151 -0.73535,-0.5336l1.17805,-5.9293c0.03389,-0.1705 -0.0228,-0.3467 -0.15047,-0.4647l-4.43871,-4.1051z" id="svg_6"/>
   </g>
  </g>
 </g>
</svg>