<?xml version="1.0" encoding="utf-8"?><!-- Uploaded to: SVG Repo, www.svgrepo.com, Generator: SVG Repo Mixer Tools -->
<svg fill="#000000" width="800px" height="800px" viewBox="0 0 24 24" id="user-alert-left-3" data-name="Flat Line" xmlns="http://www.w3.org/2000/svg" class="icon flat-line"><path id="secondary" d="M20,20a1,1,0,0,1-1,1H5a1,1,0,0,1-1-1,7,7,0,0,1,1.56-4.4,1,1,0,0,1,1.34-.19,9,9,0,0,0,10.2,0,1,1,0,0,1,1.34.19A7,7,0,0,1,20,20ZM12,3a5,5,0,1,0,5,5A5,5,0,0,0,12,3Z" style="fill: rgb(44, 169, 188); stroke-width: 2;"></path><line id="primary-upstroke" x1="3.95" y1="20.5" x2="4.05" y2="20.5" style="fill: none; stroke: rgb(0, 0, 0); stroke-linecap: round; stroke-linejoin: round; stroke-width: 2.5;"></line><path id="primary" d="M9,21H19a1,1,0,0,0,1-1,7,7,0,0,0-1.56-4.4,1,1,0,0,0-1.34-.19A9,9,0,0,1,9,16.47" style="fill: none; stroke: rgb(0, 0, 0); stroke-linecap: round; stroke-linejoin: round; stroke-width: 2;"></path><path id="primary-2" data-name="primary" d="M12,3A5,5,0,1,1,7,8,5,5,0,0,1,12,3ZM4,13v3" style="fill: none; stroke: rgb(0, 0, 0); stroke-linecap: round; stroke-linejoin: round; stroke-width: 2;"></path></svg>